<svg aria-hidden="true" style="position: absolute; width: 0; height: 0; overflow: hidden;" version="1.1" xmlns="http://www.w3.org/2000/svg" xmlns:xlink="http://www.w3.org/1999/xlink">
<defs>
<symbol id="icon-logo-footer" viewBox="0 0 147 32">
<path fill="none" stroke="#5c8692" style="stroke: var(--color1, #5c8692)" stroke-linejoin="miter" stroke-linecap="butt" stroke-miterlimit="4" stroke-width="2.4615" d="M16 30.769c8.157 0 14.769-6.612 14.769-14.769s-6.612-14.769-14.769-14.769c-8.157 0-14.769 6.612-14.769 14.769s6.612 14.769 14.769 14.769z"></path>
<path fill="none" stroke="#5c8692" style="stroke: var(--color1, #5c8692)" stroke-linejoin="round" stroke-linecap="round" stroke-miterlimit="4" stroke-width="2.4615" d="M24.015 11.815c0.122 1.265-0.336 2.534-1.273 3.527l-5.607 5.96-7.723 0.743-0.65-6.753 5.617-5.953c0.937-0.993 2.276-1.629 3.722-1.768l5.060 0.121 0.854 4.124z"></path>
<path fill="none" stroke="#5c8692" style="stroke: var(--color1, #5c8692)" stroke-linejoin="round" stroke-linecap="round" stroke-miterlimit="4" stroke-width="2.4615" d="M19.394 11.636l-14.545 14.545"></path>
<path fill="none" stroke="#5c8692" style="stroke: var(--color1, #5c8692)" stroke-linejoin="round" stroke-linecap="round" stroke-miterlimit="4" stroke-width="2.4615" d="M20.364 17.455h-6.788"></path>
<path fill="none" stroke="#5c8692" style="stroke: var(--color1, #5c8692)" stroke-linejoin="round" stroke-linecap="round" stroke-miterlimit="4" stroke-width="2.4615" d="M19.394 11.636h-6.788"></path>
<path fill="#fff" style="fill: var(--color2, #fff)" d="M48.042 15.319c1.167 0.090 2.118 0.308 2.856 0.654 0.743 0.34 1.279 0.76 1.605 1.26 0.333 0.494 0.5 1.026 0.5 1.596 0 0.814-0.218 1.51-0.654 2.087-0.436 0.57-1.061 1.003-1.875 1.298-0.814 0.288-1.782 0.433-2.904 0.433-0.282 0-0.766-0.010-1.452-0.029-0.68-0.019-1.365-0.029-2.058-0.029-1.353 0-2.362 0.019-3.029 0.058v-0.394c0.436-0.019 0.753-0.070 0.952-0.154s0.333-0.237 0.404-0.462c0.077-0.224 0.115-0.583 0.115-1.077v-9.769c0-0.494-0.038-0.853-0.115-1.077-0.071-0.224-0.205-0.378-0.404-0.462s-0.516-0.135-0.952-0.154v-0.394c0.66 0.038 1.657 0.058 2.99 0.058 0.526 0 1.109-0.006 1.75-0.019s1.087-0.019 1.337-0.019c1.058 0 1.949 0.131 2.673 0.394 0.731 0.256 1.279 0.619 1.644 1.087 0.365 0.462 0.548 1 0.548 1.615 0 0.487-0.141 0.965-0.423 1.433s-0.721 0.885-1.317 1.25c-0.59 0.359-1.321 0.619-2.192 0.779v0.038zM46.485 15.242c0.853 0 1.449-0.292 1.788-0.875 0.346-0.583 0.519-1.362 0.519-2.337 0-0.987-0.154-1.721-0.462-2.202-0.308-0.487-0.798-0.731-1.471-0.731-0.353 0-0.615 0.048-0.788 0.144-0.167 0.090-0.282 0.253-0.346 0.49-0.058 0.231-0.087 0.583-0.087 1.058v4.452h0.846zM45.638 20.56c0 0.474 0.032 0.824 0.096 1.048 0.071 0.224 0.199 0.378 0.385 0.462s0.478 0.125 0.875 0.125c1.827 0 2.74-1.151 2.74-3.452 0-1.032-0.262-1.817-0.788-2.356-0.519-0.538-1.346-0.808-2.481-0.808h-0.827v4.981zM57.715 16.56c-0.020 0.192-0.029 0.5-0.029 0.923 0 0.872 0.122 1.596 0.365 2.173 0.244 0.57 0.558 0.99 0.942 1.26 0.391 0.263 0.808 0.394 1.25 0.394 1.084 0 1.952-0.526 2.606-1.577l0.346 0.115c-0.166 0.538-0.426 1.042-0.779 1.51-0.346 0.462-0.788 0.84-1.327 1.135-0.532 0.288-1.141 0.433-1.827 0.433-0.904 0-1.698-0.192-2.385-0.577-0.679-0.385-1.212-0.968-1.596-1.75-0.378-0.788-0.567-1.766-0.567-2.933 0-1.192 0.205-2.195 0.615-3.010 0.41-0.82 0.977-1.436 1.702-1.846s1.561-0.615 2.509-0.615c2.468 0 3.702 1.455 3.702 4.365h-5.529zM60.763 16.185c0.019-1.026-0.087-1.878-0.318-2.558-0.224-0.679-0.567-1.019-1.028-1.019-0.468 0-0.859 0.292-1.173 0.875-0.308 0.577-0.497 1.478-0.568 2.702h3.087zM70.224 14.338c0-0.545-0.131-0.974-0.394-1.288-0.257-0.314-0.66-0.471-1.212-0.471-0.257 0-0.513 0.042-0.769 0.125-0.257 0.077-0.468 0.195-0.635 0.356 0.365 0.122 0.65 0.314 0.856 0.577 0.205 0.256 0.308 0.58 0.308 0.971 0 0.269-0.067 0.513-0.202 0.731-0.129 0.212-0.314 0.381-0.558 0.51-0.244 0.122-0.522 0.183-0.836 0.183-0.423 0-0.763-0.144-1.020-0.433-0.25-0.288-0.375-0.651-0.375-1.087 0-0.679 0.365-1.231 1.096-1.654 0.801-0.442 1.801-0.663 3-0.663 1.346 0 2.305 0.295 2.875 0.885 0.276 0.276 0.461 0.619 0.558 1.029s0.144 0.984 0.144 1.721v5.356c0 0.321 0.029 0.548 0.086 0.683 0.064 0.128 0.173 0.192 0.327 0.192 0.212 0 0.455-0.112 0.731-0.337l0.202 0.337c-0.301 0.25-0.628 0.433-0.981 0.548s-0.776 0.173-1.269 0.173c-0.667 0-1.148-0.147-1.442-0.442s-0.442-0.679-0.442-1.154c-0.32 0.532-0.74 0.933-1.26 1.202-0.519 0.263-1.074 0.394-1.663 0.394-0.75 0-1.352-0.195-1.808-0.587-0.448-0.397-0.673-0.949-0.673-1.654 0-0.686 0.225-1.253 0.673-1.702s1.144-0.846 2.086-1.192c0.103-0.038 0.436-0.163 1-0.375 0.564-0.218 0.971-0.439 1.221-0.663s0.375-0.471 0.375-0.74v-1.529zM70.224 16.675c-0.083 0.141-0.221 0.288-0.414 0.442-0.186 0.147-0.455 0.33-0.808 0.548-0.416 0.288-0.743 0.615-0.981 0.981-0.237 0.359-0.355 0.808-0.355 1.346 0 0.513 0.112 0.897 0.336 1.154 0.225 0.25 0.519 0.375 0.885 0.375 0.519 0 0.965-0.269 1.337-0.808v-4.038zM85.185 20.502c0 0.609 0.093 1.051 0.279 1.327 0.192 0.269 0.519 0.404 0.981 0.404v0.413c-0.41-0.038-0.817-0.058-1.221-0.058-1.154 0-2.112 0.093-2.875 0.279v-1.779c-0.596 1.224-1.654 1.837-3.173 1.837-0.981 0-1.695-0.256-2.144-0.769-0.218-0.244-0.375-0.567-0.471-0.971-0.090-0.404-0.134-0.933-0.134-1.587v-4.99c0-0.603-0.096-1.042-0.288-1.317-0.186-0.276-0.51-0.413-0.971-0.413v-0.413c0.417 0.038 0.824 0.058 1.221 0.058 1.147 0 2.106-0.090 2.875-0.269v8.154c0 0.545 0.080 0.958 0.24 1.24 0.166 0.276 0.478 0.413 0.932 0.413 0.346 0 0.664-0.099 0.952-0.298 0.295-0.205 0.529-0.481 0.702-0.827 0.173-0.353 0.259-0.74 0.259-1.163v-5.163c0-0.603-0.096-1.042-0.288-1.317-0.186-0.276-0.51-0.413-0.971-0.413v-0.413c0.417 0.038 0.824 0.058 1.221 0.058 1.148 0 2.106-0.090 2.875-0.269v8.25zM94.050 12.483v0.394h-2.327v7.942c0 0.391 0.070 0.67 0.212 0.837 0.141 0.16 0.359 0.24 0.654 0.24 0.558 0 1.003-0.394 1.337-1.183l0.336 0.183c-0.493 1.353-1.391 2.029-2.692 2.029-0.865 0-1.523-0.224-1.971-0.673-0.276-0.269-0.465-0.609-0.568-1.019-0.096-0.417-0.144-0.99-0.144-1.721v-6.635h-1.654v-0.394h1.654v-2.615c1.083 0 2.029-0.212 2.836-0.635v3.25h2.327zM101.261 12.463c0.615 0.038 1.253 0.058 1.914 0.058s1.167-0.019 1.519-0.058v0.394c-0.276 0.070-0.526 0.234-0.75 0.49-0.218 0.256-0.423 0.657-0.615 1.202l-3.519 9.904c-0.263 0.686-0.551 1.154-0.865 1.404-0.385 0.327-0.958 0.49-1.721 0.49-0.34 0-0.676-0.058-1.009-0.173-0.327-0.109-0.6-0.282-0.818-0.519-0.211-0.237-0.317-0.532-0.317-0.885 0-0.404 0.144-0.728 0.433-0.971s0.67-0.365 1.144-0.365c0.442 0 0.798 0.109 1.067 0.327 0.276 0.218 0.414 0.522 0.414 0.913 0 0.269-0.090 0.519-0.269 0.75-0.173 0.237-0.414 0.413-0.721 0.529 0.096 0.013 0.247 0.019 0.452 0.019 0.821 0 1.42-0.519 1.798-1.558l0.318-0.942-4.183-9.49c-0.205-0.455-0.41-0.753-0.615-0.894-0.199-0.141-0.401-0.212-0.606-0.212v-0.413c0.865 0.077 1.766 0.115 2.702 0.115 0.775 0 1.689-0.038 2.74-0.115v0.413c-0.282 0-0.503 0.010-0.664 0.029s-0.298 0.067-0.413 0.144c-0.109 0.077-0.163 0.202-0.163 0.375 0 0.154 0.045 0.34 0.134 0.558l2.413 5.817 1.346-3.788c0.211-0.628 0.317-1.154 0.317-1.577 0-0.5-0.128-0.878-0.385-1.135-0.257-0.263-0.615-0.41-1.077-0.442v-0.394zM109.771 14.021c0.596-1.218 1.673-1.827 3.231-1.827 0.539 0 0.978 0.064 1.317 0.192 0.346 0.128 0.628 0.317 0.846 0.567s0.375 0.574 0.471 0.971c0.096 0.397 0.144 0.929 0.144 1.596v5.298c0 0.365 0.042 0.651 0.125 0.856s0.215 0.349 0.394 0.433c0.179 0.083 0.426 0.125 0.74 0.125v0.413c-1.308-0.051-2.173-0.077-2.596-0.077-0.404 0-1.26 0.026-2.567 0.077v-0.413c0.269 0 0.481-0.042 0.635-0.125s0.263-0.228 0.327-0.433c0.071-0.205 0.106-0.49 0.106-0.856v-6.125c0-0.538-0.090-0.946-0.269-1.221-0.173-0.276-0.49-0.413-0.952-0.413-0.359 0-0.689 0.099-0.991 0.298-0.295 0.199-0.529 0.474-0.702 0.827-0.173 0.346-0.259 0.731-0.259 1.154v5.481c0 0.365 0.035 0.651 0.106 0.856s0.183 0.349 0.336 0.433c0.154 0.083 0.362 0.125 0.625 0.125v0.413c-1.205-0.051-2.019-0.077-2.442-0.077-0.404 0-1.311 0.026-2.721 0.077v-0.413c0.314 0 0.561-0.042 0.74-0.125 0.186-0.083 0.318-0.228 0.394-0.433 0.083-0.205 0.125-0.49 0.125-0.856v-6.212c0-0.609-0.093-1.048-0.279-1.317-0.186-0.276-0.513-0.413-0.981-0.413v-0.413c0.416 0.038 0.824 0.058 1.221 0.058 1.16 0 2.118-0.090 2.875-0.269v1.769zM121.424 16.56c-0.019 0.192-0.029 0.5-0.029 0.923 0 0.872 0.122 1.596 0.366 2.173 0.243 0.57 0.557 0.99 0.942 1.26 0.391 0.263 0.807 0.394 1.25 0.394 1.083 0 1.952-0.526 2.606-1.577l0.346 0.115c-0.167 0.538-0.426 1.042-0.779 1.51-0.346 0.462-0.789 0.84-1.327 1.135-0.532 0.288-1.141 0.433-1.827 0.433-0.903 0-1.698-0.192-2.384-0.577-0.679-0.385-1.212-0.968-1.596-1.75-0.379-0.788-0.568-1.766-0.568-2.933 0-1.192 0.205-2.195 0.615-3.010 0.411-0.82 0.978-1.436 1.702-1.846s1.561-0.615 2.51-0.615c2.468 0 3.702 1.455 3.702 4.365h-5.529zM124.472 16.185c0.019-1.026-0.086-1.878-0.317-2.558-0.225-0.679-0.568-1.019-1.029-1.019-0.468 0-0.859 0.292-1.173 0.875-0.308 0.577-0.497 1.478-0.567 2.702h3.086zM129.405 18.848c0.129 1.135 0.404 2.022 0.827 2.663 0.429 0.641 1.035 0.962 1.817 0.962 0.385 0 0.711-0.115 0.981-0.346 0.276-0.237 0.414-0.59 0.414-1.058 0-0.365-0.083-0.692-0.25-0.981-0.16-0.288-0.365-0.545-0.615-0.769s-0.625-0.532-1.125-0.923c-0.609-0.494-1.067-0.881-1.375-1.163-0.301-0.282-0.561-0.615-0.779-1-0.218-0.391-0.327-0.833-0.327-1.327 0-0.564 0.154-1.051 0.462-1.461s0.721-0.721 1.24-0.933c0.519-0.212 1.084-0.317 1.693-0.317 0.5 0 0.958 0.061 1.375 0.183s0.743 0.263 0.981 0.423c0.128 0.090 0.244 0.135 0.346 0.135 0.244 0 0.397-0.24 0.461-0.721h0.433c-0.051 0.66-0.077 1.814-0.077 3.462h-0.433c-0.115-0.859-0.375-1.58-0.779-2.163-0.397-0.59-0.977-0.885-1.74-0.885-0.391 0-0.711 0.112-0.961 0.337s-0.375 0.532-0.375 0.923c0 0.442 0.148 0.824 0.443 1.144s0.65 0.628 1.067 0.923c0.417 0.295 0.721 0.516 0.913 0.663 0.539 0.404 0.965 0.756 1.279 1.058 0.321 0.301 0.58 0.644 0.779 1.029 0.198 0.378 0.298 0.814 0.298 1.308 0 0.577-0.17 1.087-0.51 1.529-0.333 0.442-0.785 0.785-1.356 1.029-0.571 0.237-1.195 0.356-1.875 0.356-0.699 0-1.308-0.138-1.827-0.413-0.391-0.199-0.699-0.337-0.923-0.413-0.038-0.013-0.071-0.019-0.096-0.019-0.211 0-0.365 0.234-0.461 0.702h-0.433c0.051-0.75 0.077-2.061 0.077-3.933h0.433zM138.895 18.848c0.128 1.135 0.404 2.022 0.827 2.663 0.43 0.641 1.035 0.962 1.818 0.962 0.385 0 0.711-0.115 0.981-0.346 0.276-0.237 0.414-0.59 0.414-1.058 0-0.365-0.083-0.692-0.25-0.981-0.161-0.288-0.365-0.545-0.615-0.769s-0.625-0.532-1.125-0.923c-0.609-0.494-1.067-0.881-1.375-1.163-0.301-0.282-0.561-0.615-0.779-1-0.218-0.391-0.327-0.833-0.327-1.327 0-0.564 0.154-1.051 0.461-1.461s0.721-0.721 1.241-0.933c0.519-0.212 1.083-0.317 1.692-0.317 0.5 0 0.959 0.061 1.375 0.183s0.744 0.263 0.981 0.423c0.129 0.090 0.244 0.135 0.347 0.135 0.243 0 0.397-0.24 0.461-0.721h0.433c-0.051 0.66-0.077 1.814-0.077 3.462h-0.433c-0.116-0.859-0.375-1.58-0.779-2.163-0.398-0.59-0.978-0.885-1.74-0.885-0.391 0-0.712 0.112-0.962 0.337s-0.375 0.532-0.375 0.923c0 0.442 0.147 0.824 0.442 1.144s0.651 0.628 1.067 0.923c0.417 0.295 0.721 0.516 0.914 0.663 0.538 0.404 0.964 0.756 1.279 1.058 0.321 0.301 0.58 0.644 0.779 1.029 0.199 0.378 0.298 0.814 0.298 1.308 0 0.577-0.17 1.087-0.51 1.529-0.333 0.442-0.785 0.785-1.356 1.029-0.571 0.237-1.196 0.356-1.875 0.356-0.699 0-1.308-0.138-1.827-0.413-0.391-0.199-0.699-0.337-0.923-0.413-0.038-0.013-0.070-0.019-0.096-0.019-0.212 0-0.365 0.234-0.462 0.702h-0.433c0.052-0.75 0.077-2.061 0.077-3.933h0.433z"></path>
</symbol>
<symbol id="icon-logo-header" viewBox="0 0 176 32">
<path d="M51.118 16.989c1.517 0.117 2.754 0.4 3.713 0.85 0.967 0.442 1.662 0.988 2.087 1.637 0.433 0.642 0.65 1.333 0.65 2.075 0 1.058-0.283 1.962-0.85 2.712-0.567 0.742-1.379 1.304-2.438 1.688-1.058 0.375-2.317 0.562-3.775 0.562-0.367 0-0.996-0.013-1.887-0.038-0.883-0.025-1.775-0.038-2.675-0.038-1.758 0-3.071 0.025-3.938 0.075v-0.512c0.567-0.025 0.979-0.092 1.237-0.2s0.433-0.308 0.525-0.6c0.1-0.292 0.15-0.758 0.15-1.4v-12.7c0-0.642-0.050-1.108-0.15-1.4-0.092-0.292-0.267-0.492-0.525-0.6s-0.671-0.175-1.237-0.2v-0.512c0.858 0.050 2.154 0.075 3.888 0.075 0.683 0 1.442-0.008 2.275-0.025s1.412-0.025 1.737-0.025c1.375 0 2.533 0.171 3.475 0.512 0.95 0.333 1.663 0.804 2.138 1.412 0.475 0.6 0.712 1.3 0.712 2.1 0 0.633-0.183 1.254-0.55 1.863s-0.938 1.15-1.713 1.625c-0.767 0.467-1.717 0.804-2.85 1.012v0.050zM49.093 16.889c1.108 0 1.883-0.379 2.325-1.138 0.45-0.758 0.675-1.771 0.675-3.038 0-1.283-0.2-2.237-0.6-2.862-0.4-0.633-1.038-0.95-1.913-0.95-0.458 0-0.8 0.063-1.025 0.188-0.217 0.117-0.367 0.329-0.45 0.638-0.075 0.3-0.112 0.758-0.112 1.375v5.788h1.1zM47.993 23.802c0 0.617 0.042 1.071 0.125 1.362 0.092 0.292 0.258 0.492 0.5 0.6s0.621 0.162 1.137 0.162c2.375 0 3.563-1.496 3.563-4.488 0-1.342-0.342-2.363-1.025-3.063-0.675-0.7-1.75-1.050-3.225-1.050h-1.075v6.475zM63.18 18.602c-0.025 0.25-0.038 0.65-0.038 1.2 0 1.133 0.158 2.075 0.475 2.825 0.317 0.742 0.725 1.288 1.225 1.638 0.508 0.342 1.050 0.512 1.625 0.512 1.408 0 2.537-0.683 3.388-2.050l0.45 0.15c-0.217 0.7-0.554 1.354-1.013 1.962-0.45 0.6-1.025 1.092-1.725 1.475-0.692 0.375-1.483 0.563-2.375 0.563-1.175 0-2.208-0.25-3.1-0.75-0.883-0.5-1.575-1.258-2.075-2.275-0.492-1.025-0.737-2.296-0.737-3.812 0-1.55 0.267-2.854 0.8-3.913 0.533-1.067 1.271-1.867 2.212-2.4s2.029-0.8 3.262-0.8c3.208 0 4.813 1.892 4.813 5.675h-7.187zM67.143 18.114c0.025-1.333-0.113-2.442-0.413-3.325-0.292-0.883-0.737-1.325-1.338-1.325-0.608 0-1.117 0.379-1.525 1.137-0.4 0.75-0.646 1.921-0.737 3.512h4.013zM78.93 15.714c0-0.708-0.171-1.267-0.512-1.675-0.333-0.408-0.858-0.613-1.575-0.613-0.333 0-0.667 0.054-1 0.163-0.333 0.1-0.608 0.254-0.825 0.462 0.475 0.158 0.846 0.408 1.112 0.75 0.267 0.333 0.4 0.754 0.4 1.262 0 0.35-0.088 0.667-0.263 0.95-0.167 0.275-0.408 0.496-0.725 0.663-0.317 0.158-0.679 0.238-1.088 0.238-0.55 0-0.992-0.188-1.325-0.563-0.325-0.375-0.487-0.846-0.487-1.412 0-0.883 0.475-1.6 1.425-2.15 1.042-0.575 2.342-0.862 3.9-0.862 1.75 0 2.996 0.383 3.737 1.15 0.358 0.358 0.6 0.804 0.725 1.338s0.188 1.279 0.188 2.237v6.963c0 0.417 0.037 0.712 0.112 0.887 0.083 0.167 0.225 0.25 0.425 0.25 0.275 0 0.592-0.146 0.95-0.438l0.263 0.438c-0.392 0.325-0.817 0.562-1.275 0.712s-1.008 0.225-1.65 0.225c-0.867 0-1.492-0.192-1.875-0.575s-0.575-0.883-0.575-1.5c-0.417 0.692-0.962 1.212-1.638 1.563-0.675 0.342-1.396 0.512-2.162 0.512-0.975 0-1.758-0.254-2.35-0.762-0.583-0.517-0.875-1.233-0.875-2.15 0-0.892 0.292-1.629 0.875-2.213s1.488-1.1 2.713-1.55c0.133-0.050 0.567-0.212 1.3-0.488 0.733-0.283 1.263-0.571 1.587-0.862s0.487-0.613 0.487-0.963v-1.987zM78.93 18.752c-0.108 0.183-0.287 0.375-0.537 0.575-0.242 0.192-0.592 0.429-1.050 0.712-0.542 0.375-0.967 0.8-1.275 1.275-0.308 0.467-0.463 1.050-0.463 1.75 0 0.667 0.146 1.167 0.438 1.5 0.292 0.325 0.675 0.488 1.15 0.488 0.675 0 1.254-0.35 1.737-1.050v-5.25zM97.868 23.727c0 0.792 0.121 1.367 0.362 1.725 0.251 0.35 0.676 0.525 1.275 0.525v0.538c-0.533-0.050-1.062-0.075-1.587-0.075-1.5 0-2.746 0.121-3.738 0.363v-2.313c-0.775 1.592-2.15 2.387-4.125 2.387-1.275 0-2.204-0.333-2.787-1-0.283-0.317-0.487-0.737-0.612-1.262-0.117-0.525-0.175-1.213-0.175-2.063v-6.488c0-0.783-0.125-1.354-0.375-1.712-0.242-0.358-0.662-0.537-1.263-0.537v-0.537c0.542 0.050 1.071 0.075 1.588 0.075 1.492 0 2.737-0.117 3.737-0.35v10.6c0 0.708 0.104 1.246 0.313 1.612 0.217 0.358 0.621 0.538 1.212 0.538 0.45 0 0.862-0.129 1.238-0.387 0.383-0.267 0.688-0.625 0.912-1.075 0.225-0.458 0.337-0.962 0.337-1.512v-6.713c0-0.783-0.125-1.354-0.375-1.712-0.242-0.358-0.663-0.537-1.263-0.537v-0.537c0.541 0.050 1.071 0.075 1.587 0.075 1.492 0 2.737-0.117 3.738-0.35v10.725zM108.88 13.302v0.513h-3.025v10.325c0 0.508 0.092 0.871 0.275 1.088 0.184 0.208 0.466 0.313 0.85 0.313 0.725 0 1.304-0.513 1.737-1.537l0.438 0.237c-0.642 1.758-1.808 2.638-3.5 2.638-1.126 0-1.979-0.292-2.563-0.875-0.358-0.35-0.604-0.792-0.738-1.325-0.125-0.542-0.187-1.288-0.187-2.237v-8.625h-2.15v-0.513h2.15v-3.4c1.408 0 2.638-0.275 3.687-0.825v4.225h3.025zM117.743 13.277c0.8 0.050 1.629 0.075 2.488 0.075s1.517-0.025 1.975-0.075v0.512c-0.358 0.092-0.683 0.304-0.975 0.638-0.283 0.333-0.55 0.854-0.8 1.563l-4.575 12.875c-0.342 0.892-0.717 1.5-1.126 1.825-0.5 0.425-1.245 0.638-2.237 0.638-0.442 0-0.88-0.075-1.313-0.225-0.424-0.142-0.779-0.367-1.062-0.675-0.274-0.308-0.412-0.692-0.412-1.15 0-0.525 0.187-0.946 0.562-1.263s0.871-0.475 1.488-0.475c0.575 0 1.038 0.142 1.388 0.425 0.358 0.283 0.538 0.679 0.538 1.188 0 0.35-0.117 0.675-0.35 0.975-0.225 0.308-0.538 0.538-0.937 0.687 0.124 0.017 0.321 0.025 0.587 0.025 1.067 0 1.846-0.675 2.338-2.025l0.412-1.225-5.437-12.338c-0.267-0.592-0.534-0.979-0.8-1.162-0.259-0.183-0.521-0.275-0.788-0.275v-0.537c1.126 0.1 2.297 0.15 3.513 0.15 1.008 0 2.196-0.050 3.563-0.15v0.537c-0.367 0-0.655 0.012-0.863 0.037s-0.387 0.088-0.538 0.188c-0.141 0.1-0.212 0.262-0.212 0.488 0 0.2 0.058 0.442 0.175 0.725l3.138 7.563 1.75-4.925c0.275-0.817 0.412-1.5 0.412-2.050 0-0.65-0.166-1.142-0.5-1.475-0.333-0.342-0.8-0.533-1.4-0.575v-0.512zM128.293 15.302c0.775-1.583 2.175-2.375 4.2-2.375 0.7 0 1.271 0.083 1.712 0.25 0.45 0.167 0.816 0.413 1.1 0.738s0.487 0.746 0.613 1.262 0.187 1.208 0.187 2.075v6.887c0 0.475 0.054 0.846 0.163 1.113s0.279 0.454 0.512 0.563c0.234 0.108 0.555 0.162 0.963 0.162v0.538c-1.7-0.067-2.825-0.1-3.375-0.1-0.525 0-1.637 0.033-3.338 0.1v-0.538c0.35 0 0.625-0.054 0.826-0.162s0.341-0.296 0.425-0.563c0.091-0.267 0.137-0.637 0.137-1.113v-7.962c0-0.7-0.117-1.229-0.35-1.588-0.225-0.358-0.637-0.537-1.237-0.537-0.467 0-0.896 0.129-1.288 0.388-0.383 0.258-0.687 0.617-0.912 1.075-0.225 0.45-0.337 0.95-0.337 1.5v7.125c0 0.475 0.046 0.846 0.138 1.113s0.237 0.454 0.437 0.563 0.471 0.162 0.813 0.162v0.538c-1.567-0.067-2.625-0.1-3.175-0.1-0.525 0-1.704 0.033-3.537 0.1v-0.538c0.409 0 0.73-0.054 0.963-0.162 0.241-0.108 0.412-0.296 0.512-0.563 0.109-0.267 0.163-0.637 0.163-1.113v-8.075c0-0.792-0.121-1.362-0.362-1.712-0.242-0.358-0.667-0.537-1.275-0.537v-0.537c0.542 0.050 1.071 0.075 1.587 0.075 1.509 0 2.755-0.117 3.738-0.35v2.3zM142.93 18.602c-0.025 0.25-0.037 0.65-0.037 1.2 0 1.133 0.158 2.075 0.475 2.825 0.316 0.742 0.725 1.288 1.224 1.638 0.508 0.342 1.050 0.512 1.626 0.512 1.408 0 2.537-0.683 3.387-2.050l0.45 0.15c-0.217 0.7-0.554 1.354-1.012 1.962-0.451 0.6-1.025 1.092-1.725 1.475-0.692 0.375-1.484 0.563-2.375 0.563-1.175 0-2.208-0.25-3.099-0.75-0.884-0.5-1.575-1.258-2.075-2.275-0.492-1.025-0.738-2.296-0.738-3.812 0-1.55 0.267-2.854 0.8-3.913 0.534-1.067 1.271-1.867 2.213-2.4s2.030-0.8 3.263-0.8c3.208 0 4.812 1.892 4.812 5.675h-7.187zM146.893 18.114c0.025-1.333-0.112-2.442-0.412-3.325-0.292-0.883-0.738-1.325-1.338-1.325-0.608 0-1.116 0.379-1.525 1.137-0.4 0.75-0.645 1.921-0.738 3.512h4.013zM152.793 21.577c0.166 1.475 0.525 2.629 1.075 3.462 0.559 0.833 1.346 1.25 2.363 1.25 0.5 0 0.925-0.15 1.274-0.45 0.358-0.308 0.538-0.767 0.538-1.375 0-0.475-0.108-0.9-0.325-1.275-0.208-0.375-0.475-0.708-0.8-1s-0.813-0.692-1.463-1.2c-0.792-0.642-1.387-1.146-1.787-1.512-0.391-0.367-0.729-0.8-1.012-1.3-0.283-0.508-0.425-1.083-0.425-1.725 0-0.733 0.2-1.367 0.6-1.9s0.938-0.938 1.613-1.213c0.675-0.275 1.408-0.412 2.2-0.412 0.65 0 1.246 0.079 1.787 0.237s0.966 0.342 1.275 0.55c0.166 0.117 0.316 0.175 0.45 0.175 0.316 0 0.517-0.313 0.6-0.938h0.562c-0.067 0.858-0.1 2.358-0.1 4.5h-0.562c-0.15-1.117-0.487-2.054-1.013-2.813-0.517-0.767-1.271-1.15-2.262-1.15-0.508 0-0.925 0.146-1.25 0.438s-0.488 0.692-0.488 1.2c0 0.575 0.192 1.071 0.575 1.488s0.846 0.817 1.388 1.2c0.541 0.383 0.937 0.671 1.188 0.862 0.699 0.525 1.254 0.983 1.662 1.375 0.417 0.392 0.754 0.838 1.012 1.337 0.259 0.492 0.388 1.058 0.388 1.7 0 0.75-0.22 1.412-0.662 1.987-0.433 0.575-1.021 1.021-1.763 1.337-0.742 0.308-1.554 0.463-2.438 0.463-0.909 0-1.7-0.179-2.375-0.538-0.508-0.258-0.908-0.438-1.2-0.538-0.050-0.017-0.092-0.025-0.125-0.025-0.275 0-0.475 0.304-0.6 0.912h-0.562c0.066-0.975 0.1-2.679 0.1-5.113h0.562zM164.618 21.577c0.166 1.475 0.525 2.629 1.075 3.462 0.558 0.833 1.346 1.25 2.363 1.25 0.499 0 0.924-0.15 1.274-0.45 0.358-0.308 0.538-0.767 0.538-1.375 0-0.475-0.109-0.9-0.326-1.275-0.208-0.375-0.475-0.708-0.8-1s-0.812-0.692-1.462-1.2c-0.792-0.642-1.388-1.146-1.787-1.512-0.392-0.367-0.73-0.8-1.013-1.3-0.283-0.508-0.424-1.083-0.424-1.725 0-0.733 0.199-1.367 0.6-1.9s0.937-0.938 1.612-1.213c0.676-0.275 1.409-0.412 2.201-0.412 0.65 0 1.245 0.079 1.787 0.237s0.966 0.342 1.274 0.55c0.167 0.117 0.317 0.175 0.45 0.175 0.317 0 0.518-0.313 0.601-0.938h0.562c-0.067 0.858-0.1 2.358-0.1 4.5h-0.563c-0.15-1.117-0.487-2.054-1.012-2.813-0.517-0.767-1.271-1.15-2.263-1.15-0.508 0-0.924 0.146-1.25 0.438s-0.487 0.692-0.487 1.2c0 0.575 0.192 1.071 0.575 1.488s0.846 0.817 1.387 1.2c0.542 0.383 0.938 0.671 1.188 0.862 0.7 0.525 1.254 0.983 1.663 1.375 0.416 0.392 0.753 0.838 1.012 1.337 0.259 0.492 0.388 1.058 0.388 1.7 0 0.75-0.221 1.412-0.663 1.987-0.433 0.575-1.020 1.021-1.762 1.337-0.742 0.308-1.554 0.463-2.438 0.463-0.909 0-1.701-0.179-2.375-0.538-0.508-0.258-0.909-0.438-1.2-0.538-0.049-0.017-0.091-0.025-0.124-0.025-0.275 0-0.475 0.304-0.601 0.912h-0.562c0.067-0.975 0.101-2.679 0.101-5.113h0.562z"></path>
<path fill="none" stroke="#7a9ca5" style="stroke: var(--color3, #7a9ca5)" stroke-linejoin="miter" stroke-linecap="butt" stroke-miterlimit="4" stroke-width="2.2857" d="M15.086 30.857c7.7 0 13.943-6.242 13.943-13.943s-6.242-13.943-13.943-13.943c-7.7 0-13.943 6.242-13.943 13.943s6.242 13.943 13.943 13.943z"></path>
<path fill="none" stroke="#7a9ca5" style="stroke: var(--color3, #7a9ca5)" stroke-linejoin="round" stroke-linecap="round" stroke-miterlimit="4" stroke-width="2.2857" d="M22.643 12.969c0.115 1.193-0.317 2.389-1.2 3.325l-5.286 5.62-7.281 0.701-0.613-6.367 5.296-5.613c0.883-0.936 2.146-1.536 3.51-1.667l4.77 0.114 0.805 3.888z"></path>
<path fill="none" stroke="#7a9ca5" style="stroke: var(--color3, #7a9ca5)" stroke-linejoin="round" stroke-linecap="round" stroke-miterlimit="4" stroke-width="2.2857" d="M18.286 12.8l-13.714 13.714"></path>
<path fill="none" stroke="#7a9ca5" style="stroke: var(--color3, #7a9ca5)" stroke-linejoin="round" stroke-linecap="round" stroke-miterlimit="4" stroke-width="2.2857" d="M19.2 18.286h-6.4"></path>
<path fill="none" stroke="#7a9ca5" style="stroke: var(--color3, #7a9ca5)" stroke-linejoin="round" stroke-linecap="round" stroke-miterlimit="4" stroke-width="2.2857" d="M18.286 12.8h-6.4"></path>
</symbol>
<symbol id="icon-star" viewBox="0 0 32 32">
<path fill="#5c8692" style="fill: var(--color1, #5c8692)" d="M30.667 16l-3.253-3.707 0.453-4.907-4.813-1.093-2.52-4.24-4.533 1.947-4.533-1.947-2.52 4.24-4.813 1.080 0.453 4.907-3.253 3.72 3.253 3.707-0.453 4.92 4.813 1.093 2.52 4.24 4.533-1.96 4.533 1.947 2.52-4.24 4.813-1.093-0.453-4.907 3.253-3.707zM17.333 22.667h-2.667v-2.667h2.667v2.667zM17.333 17.333h-2.667v-8h2.667v8z"></path>
</symbol>
<symbol id="icon-calendar" viewBox="0 0 32 32">
<path fill="none" stroke="#fff" style="stroke: var(--color1, #fff)" stroke-linejoin="round" stroke-linecap="round" stroke-miterlimit="4" stroke-width="3.5556" d="M25.333 5.333h-18.667c-1.473 0-2.667 1.194-2.667 2.667v18.667c0 1.473 1.194 2.667 2.667 2.667h18.667c1.473 0 2.667-1.194 2.667-2.667v-18.667c0-1.473-1.194-2.667-2.667-2.667z"></path>
<path fill="none" stroke="#fff" style="stroke: var(--color1, #fff)" stroke-linejoin="round" stroke-linecap="round" stroke-miterlimit="4" stroke-width="3.5556" d="M21.333 2.667v5.333"></path>
<path fill="none" stroke="#fff" style="stroke: var(--color1, #fff)" stroke-linejoin="round" stroke-linecap="round" stroke-miterlimit="4" stroke-width="3.5556" d="M10.667 2.667v5.333"></path>
<path fill="none" stroke="#fff" style="stroke: var(--color1, #fff)" stroke-linejoin="round" stroke-linecap="round" stroke-miterlimit="4" stroke-width="3.5556" d="M4 13.333h24"></path>
</symbol>
<symbol id="icon-experts" viewBox="0 0 22 32">
<path fill="#7a9ca5" style="fill: var(--color2, #7a9ca5)" d="M13.51 19.381c-0.179-0.201-0.486-0.218-0.687-0.039-0.293 0.262-1.028 0.526-2.009 0.526s-1.717-0.264-2.009-0.526c-0.201-0.179-0.508-0.162-0.687 0.039s-0.162 0.508 0.039 0.687c0.542 0.484 1.536 0.773 2.658 0.773s2.116-0.289 2.658-0.773c0.201-0.179 0.218-0.486 0.039-0.687z"></path>
<path fill="#7a9ca5" style="fill: var(--color2, #7a9ca5)" d="M9.663 15.093c-0.181-0.199-0.489-0.213-0.687-0.031-0.141 0.128-0.531 0.266-1.057 0.266s-0.916-0.138-1.057-0.266c-0.199-0.181-0.506-0.167-0.687 0.031s-0.167 0.506 0.031 0.687c0.357 0.326 0.997 0.521 1.713 0.521s1.356-0.194 1.713-0.521c0.198-0.181 0.213-0.489 0.031-0.687z"></path>
<path fill="#7a9ca5" style="fill: var(--color2, #7a9ca5)" d="M10.13 12.813c-0.456-0.296-1.282-0.472-2.211-0.472s-1.756 0.176-2.211 0.472c-0.225 0.146-0.289 0.447-0.143 0.672 0.093 0.143 0.249 0.221 0.408 0.221 0.091 0 0.183-0.026 0.264-0.079 0.242-0.157 0.856-0.315 1.682-0.315s1.44 0.158 1.682 0.315c0.226 0.146 0.527 0.083 0.672-0.143 0.146-0.224 0.082-0.526-0.143-0.672z"></path>
<path fill="#7a9ca5" style="fill: var(--color2, #7a9ca5)" d="M15.451 15.093c-0.181-0.199-0.489-0.213-0.687-0.031-0.141 0.128-0.531 0.266-1.057 0.266s-0.916-0.138-1.057-0.266c-0.198-0.181-0.506-0.167-0.687 0.031s-0.167 0.506 0.031 0.687c0.357 0.326 0.998 0.521 1.713 0.521s1.355-0.194 1.713-0.521c0.199-0.181 0.213-0.489 0.031-0.687z"></path>
<path fill="#7a9ca5" style="fill: var(--color2, #7a9ca5)" d="M15.92 12.813c-0.456-0.296-1.282-0.472-2.212-0.472s-1.756 0.176-2.211 0.472c-0.226 0.146-0.289 0.447-0.143 0.672s0.447 0.289 0.673 0.143c0.242-0.157 0.856-0.315 1.682-0.315s1.44 0.158 1.682 0.315c0.082 0.053 0.174 0.079 0.264 0.079 0.159 0 0.315-0.078 0.408-0.221 0.146-0.226 0.082-0.527-0.143-0.673z"></path>
<path fill="#7a9ca5" style="fill: var(--color2, #7a9ca5)" d="M20.238 28.7c-0.859-0.73-2.030-1.132-3.297-1.132-1.668 0-2.822-0.372-3.308-0.565v-2.205c2.501-0.907 4.444-2.983 5.168-5.565 1.566-0.196 2.782-1.538 2.782-3.153 0-1.493-1.056-2.776-2.476-3.1v-1.077c0.562-1.969 0.527-3.904 0.396-5.186-0.074-0.732-0.187-1.335-0.268-1.711-0.076-0.349-0.124-0.538-0.161-0.647-0.008-0.029-0.017-0.057-0.030-0.084-0.539-1.142-1.497-2.115-2.723-2.844-0.025-0.018-0.051-0.033-0.079-0.046-1.507-0.874-3.408-1.384-5.429-1.384-1.592 0-3.149 0.315-4.502 0.911-0.246 0.108-0.357 0.395-0.249 0.641s0.395 0.357 0.641 0.249c1.231-0.542 2.652-0.828 4.11-0.828 1.613 0 3.134 0.347 4.396 0.954-0.591 0.509-1.295 0.999-2.136 1.487-0.232 0.135-0.311 0.433-0.176 0.665 0.090 0.156 0.253 0.242 0.421 0.242 0.083 0 0.167-0.021 0.244-0.066 1.019-0.591 1.854-1.19 2.544-1.823 0.844 0.553 1.516 1.241 1.943 2.029-0.017 0.027-0.034 0.053-0.052 0.080-0.012 0.018-0.024 0.036-0.036 0.053-1.065 1.551-3.325 3.037-6.594 4.337-0.019 0.008-0.039 0.015-0.059 0.023-0.071 0.028-0.143 0.056-0.214 0.084-3.252 1.256-6.569 1.994-7.737 2.234-0.266-1.077-0.349-2.139-0.34-3.089 0.404-0.081 0.807-0.197 1.2-0.311 0.308-0.089 0.627-0.181 0.934-0.253 0.005-0.001 0.010-0.003 0.015-0.004 1.999-0.529 3.967-1.244 6.38-2.319 0.246-0.109 0.356-0.397 0.246-0.642s-0.397-0.356-0.642-0.246c-2.361 1.051-4.281 1.75-6.226 2.265-0.331 0.077-0.66 0.172-0.978 0.264-0.304 0.088-0.598 0.173-0.886 0.24 0.106-1.359 0.364-2.335 0.416-2.522 0.337-0.698 0.869-1.333 1.584-1.888 0.213-0.164 0.251-0.47 0.086-0.683s-0.47-0.251-0.683-0.086c-0.848 0.659-1.482 1.424-1.884 2.275-0.010 0.022-0.019 0.044-0.026 0.067-0.046 0.153-1.117 3.779-0.037 7.562v1.077c-1.419 0.322-2.476 1.606-2.476 3.099 0 1.615 1.218 2.957 2.783 3.153 0.723 2.582 2.667 4.658 5.168 5.565v2.205c-0.487 0.194-1.64 0.566-3.308 0.566-1.268 0-2.438 0.402-3.297 1.132-0.867 0.736-1.345 1.736-1.345 2.813 0 0.269 0.218 0.486 0.486 0.486h20.569c0.269 0 0.486-0.218 0.486-0.486 0-1.077-0.478-2.076-1.346-2.814zM19.027 18.149c0.053-0.381 0.080-0.766 0.080-1.151v-3.009c0.875 0.296 1.504 1.131 1.504 2.091 0 1.001-0.673 1.851-1.59 2.118 0.003-0.016 0.004-0.033 0.006-0.049zM1.015 16.081c0-0.959 0.629-1.794 1.504-2.091v3.009c0 0.385 0.027 0.769 0.080 1.151 0.002 0.016 0.004 0.033 0.006 0.049-0.917-0.268-1.59-1.117-1.59-2.118zM18.23 5.824c0.011-0.013 0.023-0.026 0.034-0.038 0.031-0.035 0.061-0.070 0.090-0.105 0.006-0.007 0.012-0.014 0.017-0.020 0.221 1.229 0.446 3.391-0.102 5.611-0.968-0.198-3.413-0.737-6.065-1.63 2.779-1.15 4.796-2.428 6.026-3.817zM3.609 18.306c-0.001-0.005-0.002-0.011-0.003-0.016-0.077-0.426-0.114-0.859-0.114-1.291v-4.762c0.004-0.001 0.009-0.002 0.014-0.003 0.753-0.15 1.502-0.326 2.247-0.512 0.785-0.196 1.566-0.409 2.341-0.639 0.508-0.151 1.014-0.31 1.517-0.478 0.009-0.003 0.018-0.006 0.027-0.009h2.35c2.712 0.907 5.202 1.451 6.146 1.641v4.762c0 0.432-0.038 0.866-0.114 1.292-0.001 0.005-0.002 0.010-0.003 0.015-0.497 2.753-2.539 4.974-5.193 5.734-0.004 0.001-0.009 0.003-0.013 0.004-0.649 0.183-1.324 0.277-1.999 0.277-0.673 0-1.353-0.091-2-0.277-0.003-0.001-0.006-0.002-0.009-0.003-2.654-0.759-4.697-2.981-5.196-5.734zM1.061 31.027c0.116-0.601 0.446-1.151 0.956-1.586 0.683-0.581 1.631-0.9 2.668-0.9 2.503 0 3.961-0.759 4.022-0.792 0.159-0.084 0.258-0.249 0.258-0.429 0 0 0-2.234 0-2.234 0.001 0.186 1.749 0.207 1.848 0.207 0.621 0 1.241-0.069 1.848-0.207v2.234c0 0.18 0.099 0.345 0.258 0.429 0.061 0.032 1.519 0.792 4.022 0.792 1.037 0 1.984 0.319 2.668 0.9 0.511 0.434 0.841 0.985 0.956 1.586l-19.503-0.001z"></path>
</symbol>
<symbol id="icon-instagram" viewBox="0 0 30 32">
<path d="M15.111 8.191c-4.222 0-7.587 3.431-7.587 7.587 0 4.222 3.365 7.587 7.587 7.587 4.156 0 7.587-3.365 7.587-7.587 0-4.156-3.431-7.587-7.587-7.587zM15.111 20.726c-2.705 0-4.948-2.177-4.948-4.948 0-2.705 2.177-4.882 4.948-4.882 2.705 0 4.882 2.177 4.882 4.882 0 2.771-2.177 4.948-4.882 4.948zM24.743 7.927c0-0.99-0.792-1.781-1.781-1.781s-1.781 0.792-1.781 1.781 0.792 1.781 1.781 1.781c0.99 0 1.781-0.792 1.781-1.781zM29.757 9.708c-0.132-2.375-0.66-4.486-2.375-6.201s-3.826-2.243-6.201-2.375c-2.441-0.132-9.764-0.132-12.205 0-2.375 0.132-4.42 0.66-6.201 2.375-1.715 1.715-2.243 3.826-2.375 6.201-0.132 2.441-0.132 9.764 0 12.205 0.132 2.375 0.66 4.42 2.375 6.201 1.781 1.715 3.826 2.243 6.201 2.375 2.441 0.132 9.764 0.132 12.205 0 2.375-0.132 4.486-0.66 6.201-2.375 1.715-1.781 2.243-3.826 2.375-6.201 0.132-2.441 0.132-9.764 0-12.205zM26.59 24.486c-0.462 1.319-1.517 2.309-2.771 2.837-1.979 0.792-6.597 0.594-8.708 0.594-2.177 0-6.795 0.198-8.708-0.594-1.319-0.528-2.309-1.517-2.837-2.837-0.792-1.913-0.594-6.531-0.594-8.708 0-2.111-0.198-6.729 0.594-8.708 0.528-1.253 1.517-2.243 2.837-2.771 1.913-0.792 6.531-0.594 8.708-0.594 2.111 0 6.729-0.198 8.708 0.594 1.253 0.462 2.243 1.517 2.771 2.771 0.792 1.979 0.594 6.597 0.594 8.708 0 2.177 0.198 6.795-0.594 8.708z"></path>
</symbol>
<symbol id="icon-phone" viewBox="0 0 31 32">
<path fill="none" stroke="#7a9ca5" style="stroke: var(--color2, #7a9ca5)" stroke-linejoin="round" stroke-linecap="round" stroke-miterlimit="4" stroke-width="2.56" d="M19.264 7.040c1.25 0.244 2.399 0.855 3.3 1.756s1.512 2.050 1.756 3.3l-5.056-5.056zM19.264 1.92c2.598 0.289 5.020 1.452 6.869 3.299s3.015 4.268 3.307 6.865l-10.176-10.163zM28.16 22.298v3.84c0.001 0.356-0.072 0.709-0.214 1.036s-0.352 0.62-0.615 0.861c-0.263 0.241-0.573 0.424-0.911 0.539s-0.695 0.157-1.050 0.125c-3.939-0.428-7.722-1.774-11.046-3.93-3.093-1.965-5.715-4.587-7.68-7.68-2.163-3.339-3.509-7.141-3.93-11.098-0.032-0.354 0.010-0.711 0.124-1.048s0.296-0.646 0.535-0.909c0.24-0.263 0.531-0.472 0.856-0.616s0.677-0.218 1.032-0.218h3.84c0.621-0.006 1.223 0.214 1.694 0.619s0.779 0.968 0.866 1.583c0.162 1.229 0.463 2.436 0.896 3.597 0.172 0.458 0.21 0.956 0.107 1.435s-0.339 0.918-0.683 1.266l-1.626 1.626c1.822 3.204 4.475 5.858 7.68 7.68l1.626-1.626c0.348-0.344 0.787-0.581 1.266-0.683s0.977-0.065 1.435 0.107c1.161 0.433 2.368 0.734 3.597 0.896 0.622 0.088 1.19 0.401 1.596 0.88s0.622 1.091 0.606 1.718z"></path>
</symbol>
<symbol id="icon-check-mark" viewBox="0 0 45 32">
<path fill="none" stroke="#fff" style="stroke: var(--color1, #fff)" stroke-linejoin="round" stroke-linecap="round" stroke-miterlimit="4" stroke-width="4.1739" d="M41.739 2.783l-26.783 26.435-12.174-12.016"></path>
</symbol>
<symbol id="icon-facebook" viewBox="0 0 17 32">
<path d="M15.467 17.474l0.829-5.447h-5.27v-3.553c0-1.539 0.711-2.961 3.079-2.961h2.428v-4.678c0 0-2.191-0.414-4.263-0.414-4.322 0-7.164 2.664-7.164 7.401v4.204h-4.855v5.447h4.855v13.263h5.921v-13.263h4.441z"></path>
</symbol>
<symbol id="icon-linkedin" viewBox="0 0 32 32">
<path d="M7.281 32v-21.023h-6.539v21.023h6.539zM3.977 8.164c2.109 0 3.797-1.758 3.797-3.867 0-2.039-1.688-3.727-3.797-3.727-2.039 0-3.727 1.688-3.727 3.727 0 2.109 1.688 3.867 3.727 3.867zM31.68 32h0.070v-11.531c0-5.625-1.266-9.984-7.875-9.984-3.164 0-5.273 1.758-6.188 3.375h-0.070v-2.883h-6.258v21.023h6.539v-10.406c0-2.742 0.492-5.344 3.867-5.344s3.445 3.094 3.445 5.555v10.195h6.469z"></path>
</symbol>
<symbol id="icon-quality" viewBox="0 0 32 32">
<path fill="#7a9ca5" style="fill: var(--color2, #7a9ca5)" d="M4.938 25.241c-0.095 0.241-0.326 0.388-0.571 0.388-0.075 0-0.152-0.014-0.226-0.044-2.348-0.932-3.773-2.131-4.121-3.465-0.086-0.328 0.11-0.665 0.439-0.75s0.664 0.111 0.749 0.44c0.242 0.926 1.444 1.861 3.387 2.633 0.314 0.125 0.469 0.482 0.344 0.798zM7.024 18.803c0.116 0.098 0.257 0.147 0.397 0.147 0.173 0 0.346-0.074 0.467-0.216 0.22-0.258 0.189-0.646-0.069-0.867-0.305-0.26-0.602-0.535-0.885-0.819-2.697-2.703-4.109-6.138-3.681-8.876 1.151-0.181 2.424-0.035 3.714 0.397 0.054 0.028 0.114 0.049 0.176 0.061 1.718 0.609 3.457 1.718 4.967 3.231 0.38 0.38 0.742 0.785 1.075 1.2 0.213 0.264 0.599 0.306 0.863 0.093s0.305-0.6 0.093-0.865c-0.361-0.45-0.753-0.886-1.164-1.298-1.551-1.554-3.34-2.719-5.139-3.406-0.044-1.112 0.144-2.128 0.542-2.928 1.013 0.221 2.062 0.839 3.005 1.774-0.131 0.525-0.236 1.068-0.312 1.624-0.046 0.337 0.189 0.646 0.525 0.693s0.645-0.189 0.691-0.526c0.413-3.013 1.718-5.543 3.524-6.865 1.806 1.321 3.111 3.851 3.524 6.863 0.046 0.337 0.355 0.572 0.691 0.526s0.571-0.357 0.525-0.693c-0.076-0.557-0.181-1.098-0.312-1.623 0.943-0.936 1.992-1.554 3.005-1.774 0.397 0.8 0.586 1.816 0.542 2.928-1.799 0.688-3.588 1.853-5.139 3.406-0.411 0.412-0.802 0.849-1.164 1.298-0.212 0.264-0.171 0.652 0.093 0.865s0.651 0.171 0.863-0.093c0.334-0.415 0.696-0.819 1.075-1.2 1.51-1.513 3.249-2.623 4.966-3.231 0.063-0.012 0.123-0.032 0.177-0.061 1.29-0.431 2.564-0.578 3.714-0.397 0.428 2.739-0.984 6.174-3.681 8.876-0.283 0.284-0.581 0.559-0.885 0.819-0.258 0.22-0.289 0.608-0.070 0.867s0.607 0.29 0.865 0.070c0.329-0.281 0.651-0.579 0.957-0.886 3.118-3.123 4.662-7.209 3.936-10.408-0.052-0.231-0.232-0.41-0.463-0.464-1.24-0.283-2.614-0.222-4.014 0.141-0.013-1.354-0.335-2.587-0.932-3.537-0.126-0.2-0.355-0.31-0.59-0.283-1.233 0.143-2.508 0.758-3.654 1.753-0.792-2.219-2.091-4.010-3.705-5.027-0.199-0.126-0.454-0.126-0.654 0-1.614 1.018-2.913 2.808-3.705 5.027-1.146-0.995-2.419-1.61-3.654-1.753-0.235-0.027-0.463 0.083-0.589 0.283-0.596 0.949-0.917 2.182-0.931 3.537-1.399-0.364-2.774-0.424-4.014-0.141-0.23 0.052-0.41 0.233-0.463 0.464-0.726 3.199 0.819 7.284 3.936 10.408 0.305 0.306 0.627 0.603 0.957 0.885zM6.733 23.612c0.112-0.321-0.057-0.671-0.377-0.783-1.852-0.649-2.957-1.469-2.957-2.193 0-0.468 0.482-0.997 1.356-1.49 0.295-0.166 0.4-0.541 0.234-0.837s-0.54-0.401-0.835-0.234c-1.316 0.741-1.982 1.603-1.982 2.562 0 1.328 1.307 2.488 3.78 3.355 0.067 0.024 0.135 0.035 0.203 0.035 0.254-0.001 0.491-0.16 0.579-0.414zM25.151 22.872c-0.321 0.109-0.492 0.458-0.384 0.78 0.087 0.256 0.325 0.417 0.581 0.417 0.065 0 0.132-0.011 0.197-0.033 2.56-0.871 3.914-2.047 3.914-3.401 0-0.925-0.621-1.76-1.846-2.484-0.292-0.172-0.668-0.075-0.84 0.218s-0.075 0.67 0.217 0.842c0.801 0.473 1.242 0.979 1.242 1.424-0.001 0.733-1.181 1.59-3.081 2.237zM21.901 27.366c0 0.623-0.506 1.13-1.128 1.13-0.339 0-0.614 0.275-0.614 0.615s0.275 0.615 0.614 0.615c1.299 0 2.355-1.058 2.355-2.36 0-0.34-0.275-0.615-0.614-0.615s-0.614 0.275-0.614 0.615zM31.108 21.37c-0.328-0.085-0.664 0.111-0.749 0.44-0.242 0.926-1.444 1.861-3.386 2.633-0.315 0.125-0.469 0.483-0.344 0.799 0.095 0.241 0.327 0.388 0.571 0.388 0.075 0 0.152-0.014 0.226-0.044 2.348-0.933 3.773-2.132 4.122-3.465 0.085-0.328-0.112-0.664-0.44-0.75zM20.203 21.637c0 0.335-0.272 0.607-0.606 0.607-0.339 0-0.614 0.275-0.614 0.615s0.275 0.615 0.614 0.615c1.011 0 1.833-0.824 1.833-1.837 0-0.34-0.275-0.615-0.614-0.615s-0.614 0.276-0.614 0.615zM18.449 17.71h0.16c0.339 0 0.614-0.275 0.614-0.615s-0.275-0.615-0.614-0.615h-0.16c-0.339 0-0.614 0.275-0.614 0.615s0.275 0.615 0.614 0.615zM24.789 24.76c0.562 0.782 0.86 1.703 0.86 2.665 0 2.522-2.047 4.575-4.565 4.575h-10.536c-2.517 0-4.565-2.052-4.565-4.574 0-1.674 0.925-3.205 2.361-4.003-0.201-0.455-0.312-0.959-0.312-1.488 0-1.609 1.032-2.981 2.467-3.487-0.317-0.46-0.503-1.017-0.503-1.617 0-1.572 1.277-2.851 2.845-2.851h5.951c1.569 0 2.845 1.279 2.845 2.851s-1.276 2.851-2.845 2.851h-5.95c-0.382 0-0.746-0.076-1.080-0.213-0.014 0.001-0.028 0.002-0.042 0.002-1.356 0-2.459 1.105-2.459 2.464 0 0.508 0.154 0.982 0.419 1.375 0.021 0.025 0.040 0.052 0.057 0.081 0.448 0.611 1.171 1.009 1.984 1.009h8.195c1.356 0 2.459-1.105 2.459-2.465 0-0.732-0.325-1.423-0.893-1.896-0.261-0.217-0.296-0.605-0.080-0.866s0.604-0.297 0.865-0.080c0.848 0.707 1.336 1.743 1.336 2.841 0 2.037-1.654 3.694-3.687 3.694h-8.195c-1.062 0-2.021-0.453-2.695-1.176-1.099 0.57-1.813 1.717-1.813 2.973 0 1.844 1.497 3.345 3.338 3.345h10.536c1.84 0 3.338-1.501 3.338-3.344 0-0.702-0.217-1.375-0.628-1.946-0.198-0.275-0.136-0.66 0.139-0.859s0.658-0.137 0.857 0.138zM11.222 16.831c0 0.894 0.726 1.621 1.618 1.621h5.95c0.892 0 1.618-0.727 1.618-1.621s-0.726-1.621-1.618-1.621h-5.95c-0.892 0-1.618 0.727-1.618 1.621z"></path>
</symbol>
<symbol id="icon-decoration" viewBox="0 0 41 32">
<path fill="#fff" style="fill: var(--color1, #fff)" d="M40.211 16.208l-15.792 15.792v-31.584h15.792v15.792z"></path>
<path fill="#fff" style="fill: var(--color1, #fff)" d="M15.996 16.208l-15.792 15.792v-31.584h15.792v15.792z"></path>
</symbol>
<symbol id="icon-five-stars" viewBox="0 0 152 32">
<path fill="#fff" style="fill: var(--color1, #fff)" d="M149.901 12.493l-9.238-0.788-3.611-8.411-3.611 8.424-9.238 0.775 7.015 6.010-2.107 8.932 7.941-4.739 7.941 4.739-2.094-8.932 7.002-6.010zM137.052 20.32v-11.816l2.197 5.133 5.628 0.483-4.266 3.659 1.285 5.438-4.844-2.897z"></path>
<path fill="#fff" style="fill: var(--color1, #fff)" d="M15.418 22.696l7.94 4.739-2.107-8.932 7.016-6.010-9.238-0.775-3.611-8.424-3.611 8.424-9.238 0.775 7.015 6.010-2.107 8.932 7.94-4.739z"></path>
<path fill="#fff" style="fill: var(--color1, #fff)" d="M46.255 22.696l7.941 4.739-2.107-8.932 7.015-6.010-9.238-0.775-3.611-8.424-3.61 8.424-9.238 0.775 7.015 6.010-2.107 8.932 7.94-4.739z"></path>
<path fill="#fff" style="fill: var(--color1, #fff)" d="M77.092 22.696l7.94 4.739-2.107-8.932 7.015-6.010-9.238-0.775-3.61-8.424-3.611 8.424-9.238 0.775 7.015 6.010-2.107 8.932 7.941-4.739z"></path>
<path fill="#fff" style="fill: var(--color1, #fff)" d="M106.216 22.696l7.94 4.739-2.107-8.932 7.015-6.010-9.238-0.775-3.61-8.424-3.611 8.424-9.238 0.775 7.015 6.010-2.107 8.932 7.941-4.739z"></path>
</symbol>
<symbol id="icon-nature" viewBox="0 0 27 32">
<path fill="#7a9ca5" style="fill: var(--color2, #7a9ca5)" d="M5.171 12.764c0.345 0 0.625-0.28 0.625-0.625s-0.28-0.625-0.625-0.625c-0.345 0-0.625 0.28-0.625 0.625s0.28 0.625 0.625 0.625z"></path>
<path fill="#7a9ca5" style="fill: var(--color2, #7a9ca5)" d="M26.298 11.485c-0.393-0.452-0.975-0.71-1.595-0.71h-5.053v-1.070c0-1.566-1.275-2.841-2.841-2.841h-0.489v-0.080c0-1.12-0.888-2.035-1.996-2.081v-1.065c0.464-0.109 0.867-0.265 1.206-0.47 0.63-0.382 0.902-0.844 1.020-1.163 0.263-0.714-0.014-1.533-0.63-1.863-0.175-0.093-0.361-0.141-0.553-0.141-0.418 0-0.81 0.232-1.047 0.612-0.12 0.078-0.578 0.315-1.745 0.315h-2.908c-1.477 0-2.395 1.010-2.395 2.636 0 0.797 0.574 1.446 1.28 1.446 0.629 0 1.154-0.515 1.26-1.191h1.397v0.885c-1.109 0.046-1.996 0.962-1.996 2.081v0.080h-0.49c-1.567 0-2.841 1.275-2.841 2.841v0.042h-1.831c-0.812 0-1.473 0.661-1.473 1.473v2.784c-0.444 0.38-0.726 0.943-0.726 1.571v0.918c-0.842 0.601-1.415 1.562-1.489 2.663-0.031 0.483-0.054 0.996-0.065 1.521-0.006 0.266 0.205 0.486 0.471 0.493s0.486-0.205 0.492-0.471c0.011-0.512 0.033-1.009 0.064-1.48 0.064-0.973 0.664-1.794 1.497-2.183 0.006-0.002 0.012-0.006 0.017-0.008 0.333-0.151 0.702-0.233 1.068-0.233h2.526c0.367 0 0.734 0.081 1.068 0.233 0.006 0.002 0.012 0.006 0.017 0.008 0.843 0.391 1.436 1.255 1.497 2.183 0.049 0.731 0.073 1.483 0.073 2.233 0 0.355-0.010 0.709-0.017 1.064-0.001 0.012-0.001 0.025-0.001 0.038-0.004 0.125-0.353 0.471-0.426 0.601-0.12 0.213-0.217 0.437-0.288 0.67-0.163 0.53-0.197 1.088-0.207 1.639-0.014 0.825 0.068 1.653 0.25 2.458 0.001 0.004 0.001 0.007 0.002 0.011-0.304 0.837-1.087 1.391-1.984 1.391h-2.494c-0.992 0-1.861-0.707-2.068-1.682-0.328-1.546-0.524-3.242-0.584-5.040-0.009-0.266-0.233-0.475-0.497-0.465-0.266 0.009-0.475 0.231-0.465 0.497 0.062 1.855 0.265 3.607 0.604 5.208 0.3 1.417 1.567 2.446 3.010 2.446h2.495c0.938 0 1.79-0.415 2.36-1.1 0.304 0.81 0.714 1.562 1.221 2.226 0.091 0.119 0.233 0.189 0.383 0.189h9.091c0.15 0 0.292-0.070 0.383-0.189 0.147-0.192 0.285-0.392 0.415-0.597h4.142c0.266 0 0.482-0.215 0.482-0.482v-3.977l1.144-8.262c0.036-0.264-0.148-0.507-0.411-0.543s-0.507 0.147-0.543 0.411l-0.915 6.609h-2.518c-0.033-0.317-0.102-0.629-0.214-0.927-0.343-0.915-1.046-1.636-1.926-2.013l-0.017-0.127-1.2-8.668c-0.004-0.031-0.007-0.062-0.008-0.093 0-0.002 0-0.003 0-0.005-0.009-0.312 0.159-0.593 0.402-0.777 0.196-0.148 0.452-0.223 0.696-0.223h5.319c0.341 0 0.658 0.138 0.868 0.38 0.179 0.206 0.258 0.461 0.222 0.718l-0.443 3.198c-0.036 0.264 0.148 0.507 0.411 0.543s0.507-0.148 0.543-0.411l0.443-3.198c0.074-0.538-0.086-1.065-0.451-1.483zM9.667 2.853c-0.222 0-0.498 0.025-0.658 0.201-0.125 0.138-0.14 0.331-0.14 0.508 0 0.284-0.167 0.482-0.317 0.482s-0.317-0.198-0.317-0.482c0-1.455 0.897-1.672 1.431-1.672h2.908c0.449 0 0.916-0.028 1.362-0.125 0.385-0.083 0.815-0.207 1.097-0.496 0.103-0.106 0.153-0.306 0.333-0.306 0.032 0 0.064 0.009 0.096 0.026 0.17 0.091 0.284 0.402 0.181 0.681-0.083 0.225-0.441 0.86-1.87 1.094-0.004 0.001-0.007 0.001-0.011 0.001-0.393 0.064-0.791 0.087-1.189 0.087l-2.908-0.001zM13.359 3.785v0.914h-1.186v-0.883c0.001 0.021 1.186-0.022 1.186-0.031zM11.297 5.663h2.939c0.617 0 1.12 0.502 1.12 1.12v0.080h-5.178v-0.080c0-0.617 0.502-1.12 1.12-1.12zM3.543 11.222c0-0.001 0-0.002 0-0.002 0-0.281 0.228-0.509 0.509-0.509h2.239c0.011 0 0.022 0.001 0.032 0.002 0.002 0 0.004 0.001 0.006 0.001 0.565 0.041 0.471 0.699 0.471 1.094 0 0.48 0 0.959 0 1.439 0 0.099 0 0.198 0 0.298-0.124-0.023-0.251-0.035-0.377-0.035 0 0-2.502 0-2.503 0-0.117 0-0.253 0.034-0.376 0.030-0.036-0.767-0.001-1.547-0.001-2.316zM7.526 16.004c0-0.14-0.957-0.172-1.093-0.172h-2.524c-0.37 0-0.741 0.059-1.092 0.172 0 0 0-0.429 0-0.43 0-0.596 0.507-1.104 1.104-1.104h2.503c0.362 0 0.712 0.188 0.915 0.488 0.211 0.313 0.188 0.686 0.188 1.046zM21.014 29.396c0.007-0.024 0.013-0.043 0.017-0.054 0.167-0.473 0.317-0.954 0.426-1.444 0.173-0.774 0.257-1.571 0.248-2.364h2.226v4.317c0 0-3.133 0-3.134 0 0.083 0.001 0.174-0.314 0.217-0.454zM20.497 23.892h-2.275c-0.266 0-0.482 0.215-0.482 0.482s0.215 0.482 0.482 0.482h2.487c0.002 0.020 0.003 0.041 0.005 0.062 0.15 1.996-0.313 4.077-1.484 5.721h-8.604c-0.591-0.828-1.018-1.8-1.266-2.85-0.225-0.956-0.296-1.954-0.214-2.933h7.149c0.266 0 0.482-0.215 0.482-0.482s-0.215-0.482-0.482-0.482h-6.938c0.125-0.296 0.305-0.567 0.534-0.801 0.481-0.491 1.168-0.784 1.863-0.784h6.346c0.22 0 0.438 0.028 0.647 0.083 0.772 0.201 1.434 0.752 1.75 1.502zM18.686 10.888c0-0.003-0.575 0.298-0.63 0.341-0.946 0.754-0.702 1.855-0.558 2.895l1.002 7.241c-0.003-0.001-0.006-0.001-0.010-0.001-0.055-0.006-0.11-0.011-0.166-0.014-0.012-0.001-0.024-0.002-0.036-0.002-0.062-0.003-0.125-0.006-0.189-0.006h-6.345c-0.306 0-0.61 0.040-0.906 0.117-0.144 0.038-0.286 0.084-0.423 0.138-0.051 0.020-0.372 0.132-0.373 0.174 0.001-0.107 0.001-0.214 0.001-0.32 0-0.772-0.025-1.544-0.075-2.297-0.036-0.549-0.204-1.090-0.481-1.565-0.126-0.215-0.275-0.418-0.443-0.602-0.087-0.096-0.179-0.186-0.276-0.272-0.036-0.032-0.289-0.195-0.289-0.229v-0.914c0-0.594-0.269-1.184-0.726-1.573v-2.782c0-0.035-0.002-0.069-0.004-0.102-0.001-0.007-0.001-0.014-0.002-0.021-0.047-0.562-0.41-1.036-0.912-1.241v-0.151c0-1.035 0.843-1.878 1.878-1.878h8.084c1.035 0 1.878 0.843 1.878 1.878 0.001 0.001 0.001 1.185 0.001 1.185z"></path>
</symbol>
<symbol id="icon-point" viewBox="0 0 137 32">
<path fill="#5c8692" style="fill: var(--color1, #5c8692)" d="M123.429 28c7.574 0 13.714-6.14 13.714-13.714s-6.14-13.714-13.714-13.714c-7.574 0-13.714 6.14-13.714 13.714s6.14 13.714 13.714 13.714z"></path>
<path fill="#5c8692" style="fill: var(--color1, #5c8692)" d="M68.571 28c7.574 0 13.714-6.14 13.714-13.714s-6.14-13.714-13.714-13.714c-7.574 0-13.714 6.14-13.714 13.714s6.14 13.714 13.714 13.714z"></path>
<path fill="#5c8692" style="fill: var(--color1, #5c8692)" d="M13.714 28c7.574 0 13.714-6.14 13.714-13.714s-6.14-13.714-13.714-13.714c-7.574 0-13.714 6.14-13.714 13.714s6.14 13.714 13.714 13.714z"></path>
</symbol>
<symbol id="icon-twitter" viewBox="0 0 36 32">
<path d="M32.273 9.188c1.406-1.055 2.672-2.32 3.656-3.797-1.266 0.563-2.742 0.984-4.219 1.125 1.547-0.914 2.672-2.32 3.234-4.078-1.406 0.844-3.024 1.477-4.641 1.828-1.406-1.477-3.305-2.32-5.414-2.32-4.078 0-7.383 3.305-7.383 7.383 0 0.563 0.070 1.125 0.211 1.688-6.117-0.352-11.602-3.305-15.258-7.734-0.633 1.055-0.984 2.32-0.984 3.727 0 2.531 1.266 4.781 3.305 6.117-1.195-0.070-2.391-0.352-3.375-0.914v0.070c0 3.586 2.531 6.539 5.906 7.242-0.563 0.141-1.266 0.281-1.898 0.281-0.492 0-0.914-0.070-1.406-0.141 0.914 2.953 3.656 5.063 6.891 5.133-2.531 1.969-5.695 3.164-9.141 3.164-0.633 0-1.195-0.070-1.758-0.141 3.234 2.109 7.102 3.305 11.32 3.305 13.57 0 20.953-11.18 20.953-20.953 0-0.352 0-0.633 0-0.984z"></path>
</symbol>

</defs>
</svg>
